<svg width="119" height="122" viewBox="0 0 119 122" fill="none" xmlns="http://www.w3.org/2000/svg">
<path d="M19.1489 118.14C21.7392 114.93 24.1388 112.018 26.5344 109.102C-5.57048 85.1913 -6.74657 46.6312 13.3874 22.2925C37.8508 -7.27993 76.5342 -6.02448 101.573 17.7709C114.88 30.4162 119.837 47.3385 118.246 65.742C116.629 84.4433 106.511 98.2253 92.2589 108.812C95.3694 112.798 98.2973 116.551 102.083 121.402C73.1533 121.402 45.7265 121.402 17.9615 121.402C18.2727 120.477 18.6154 119.458 19.1489 118.14ZM22.556 36.3868C15.6017 48.4492 14.047 60.858 20.5185 73.6032C31.4706 95.1729 61.035 103.355 81.6917 90.6312C98.3615 80.3628 105.938 63.3728 100.708 46.9682C95.1806 29.6341 82.7019 19.9733 65.033 17.7711C47.8409 15.6283 33.5105 21.5983 22.556 36.3868Z" fill="#ffff"/>
<path d="M59.1748 51.245C66.1689 54.4156 71.2049 50.4967 77.6827 46.1389C74.0949 54.7831 75.3486 61.2441 81.2343 67.2879C73.32 63.9302 66.772 65.9672 60.3314 70.9769C64.2325 62.9116 61.2878 56.8538 55.2178 50.5995C57.3778 50.9107 58.0906 51.0134 59.1748 51.245Z" fill="#ffff"/>
<path d="M45.7714 40.71C44.3125 38.3178 42.9448 36.318 41.5771 34.3183C46.8545 35.54 51.6197 35.5701 56.0862 31.1057C53.6823 36.8049 55.5512 40.9806 59.0862 45.2062C53.9246 43.7099 49.263 43.682 44.7963 47.1342C45.1517 45.1236 45.5072 43.1131 45.7714 40.71Z" fill="#ffff"/>
<path d="M52.7221 71.2601C50.3709 71.8644 48.3987 72.5295 46.8636 73.0472C46.1172 70.0175 45.3471 66.8917 44.6348 64.0003C47.1752 63.6816 50.5635 63.2565 53.2754 62.9163C54.0049 65.5406 54.8504 68.5827 55.7442 71.7982C54.9306 71.6512 54.0159 71.486 52.7221 71.2601Z" fill="#ffff"/>
</svg>
